<svg width="60" height="60" viewBox="0 0 60 60" fill="none" xmlns="http://www.w3.org/2000/svg">
<rect width="60" height="60" rx="7" fill="#0073FF"/>
<path d="M32.72 17H35.32V31H32.72V17ZM25.48 31H22.88V17H25.48V31ZM32.92 25H25.26V22.78H32.92V25Z" fill="black"/>
<path d="M31.165 48V46.38L31.06 46.035V43.2C31.06 42.65 30.895 42.225 30.565 41.925C30.235 41.615 29.735 41.46 29.065 41.46C28.615 41.46 28.17 41.53 27.73 41.67C27.3 41.81 26.935 42.005 26.635 42.255L25.9 40.89C26.33 40.56 26.84 40.315 27.43 40.155C28.03 39.985 28.65 39.9 29.29 39.9C30.45 39.9 31.345 40.18 31.975 40.74C32.615 41.29 32.935 42.145 32.935 43.305V48H31.165ZM28.645 48.105C28.045 48.105 27.52 48.005 27.07 47.805C26.62 47.595 26.27 47.31 26.02 46.95C25.78 46.58 25.66 46.165 25.66 45.705C25.66 45.255 25.765 44.85 25.975 44.49C26.195 44.13 26.55 43.845 27.04 43.635C27.53 43.425 28.18 43.32 28.99 43.32H31.315V44.565H29.125C28.485 44.565 28.055 44.67 27.835 44.88C27.615 45.08 27.505 45.33 27.505 45.63C27.505 45.97 27.64 46.24 27.91 46.44C28.18 46.64 28.555 46.74 29.035 46.74C29.495 46.74 29.905 46.635 30.265 46.425C30.635 46.215 30.9 45.905 31.06 45.495L31.375 46.62C31.195 47.09 30.87 47.455 30.4 47.715C29.94 47.975 29.355 48.105 28.645 48.105Z" fill="black"/>
</svg>
