<svg xmlns="http://www.w3.org/2000/svg" fill="none" viewBox="0 0 18 14"><path fill="#8393A8" fill-rule="evenodd" d="M11.218 13.594c3.24 0 5.864-2.768 5.864-6.166v-.525c0-3.398-2.623-6.166-5.864-6.166H6.206h.086C3.449.78.992 2.934.992 5.933v.013c0 2.86 2.296 5.183 5.138 5.183h.246v2.466h4.842zm-3.61-1.41V9.895H6.13c-2.15 0-3.907-1.76-3.907-3.95v-.013c0-2.269 1.874-3.963 4.153-3.963 2.493 0 4.633 2.158 4.633 4.934v.525c0 2.307-1.468 4.186-3.4 4.756z" clip-rule="evenodd"/><path fill="#fff" d="M7.608 9.895v2.289c1.933-.57 3.401-2.449 3.401-4.756v-.525c0-2.776-2.14-4.934-4.633-4.934-2.28 0-4.152 1.694-4.152 3.963v.013c0 2.19 1.755 3.95 3.906 3.95h1.478z"/></svg>