<svg width="25" height="24" viewBox="0 0 25 24" fill="none" xmlns="http://www.w3.org/2000/svg">
<path fill-rule="evenodd" clip-rule="evenodd" d="M1.75 2C1.75 1.58579 2.08579 1.25 2.5 1.25H4.24001C5.42958 1.25 6.41944 2.0501 6.73293 3.12H19.23C21.333 3.12 22.9396 4.83723 22.788 6.93408L22.2481 14.4339L22.2478 14.4375C22.108 16.2545 20.5257 17.74 18.69 17.74H8.03999C5.96335 17.74 4.32544 15.9669 4.50267 13.8968L5.33259 3.93772C5.38589 3.30412 4.87993 2.75 4.24001 2.75H2.5C2.08579 2.75 1.75 2.41421 1.75 2ZM6.78094 4.62L5.99741 14.0223L5.99725 14.0242C5.89508 15.2137 6.83696 16.24 8.03999 16.24H18.69C19.7338 16.24 20.671 15.3664 20.7521 14.3242L20.7522 14.3225L21.2919 6.82615C21.3804 5.603 20.467 4.62 19.23 4.62H6.78094Z" fill="#8E979F"/>
<path fill-rule="evenodd" clip-rule="evenodd" d="M16.75 20.25C16.4739 20.25 16.25 20.4739 16.25 20.75C16.25 21.0261 16.4739 21.25 16.75 21.25C17.0261 21.25 17.25 21.0261 17.25 20.75C17.25 20.4739 17.0261 20.25 16.75 20.25ZM14.75 20.75C14.75 19.6454 15.6454 18.75 16.75 18.75C17.8546 18.75 18.75 19.6454 18.75 20.75C18.75 21.8546 17.8546 22.75 16.75 22.75C15.6454 22.75 14.75 21.8546 14.75 20.75Z" fill="#8E979F"/>
<path fill-rule="evenodd" clip-rule="evenodd" d="M8.75 20.25C8.47386 20.25 8.25 20.4739 8.25 20.75C8.25 21.0261 8.47386 21.25 8.75 21.25C9.02614 21.25 9.25 21.0261 9.25 20.75C9.25 20.4739 9.02614 20.25 8.75 20.25ZM6.75 20.75C6.75 19.6454 7.64543 18.75 8.75 18.75C9.85457 18.75 10.75 19.6454 10.75 20.75C10.75 21.8546 9.85457 22.75 8.75 22.75C7.64543 22.75 6.75 21.8546 6.75 20.75Z" fill="#8E979F"/>
<path fill-rule="evenodd" clip-rule="evenodd" d="M8.75 8C8.75 7.58579 9.08579 7.25 9.5 7.25H21.5C21.9142 7.25 22.25 7.58579 22.25 8C22.25 8.41421 21.9142 8.75 21.5 8.75H9.5C9.08579 8.75 8.75 8.41421 8.75 8Z" fill="#8E979F"/>
</svg>