<svg width="25" height="24" viewBox="0 0 25 24" fill="none" xmlns="http://www.w3.org/2000/svg">
  <path d="M22.9437 12.4688L19.9437 4.96875L19.8969 4.88437L19.8406 4.80937C19.8313 4.8 19.8312 4.8 19.8312 4.79062L19.7562 4.71562C19.7538 4.71562 19.7514 4.71464 19.7496 4.71288C19.7479 4.71112 19.7469 4.70874 19.7469 4.70625C19.7291 4.68555 19.7066 4.66947 19.6813 4.65938L19.6625 4.64062L19.5781 4.59375H19.5594L19.4844 4.56563H19.4656L19.3719 4.54688H19.0906L13.25 5.8125V3.75C13.25 3.55109 13.171 3.36032 13.0303 3.21967C12.8897 3.07902 12.6989 3 12.5 3C12.3011 3 12.1103 3.07902 11.9697 3.21967C11.829 3.36032 11.75 3.55109 11.75 3.75V6.15L5.59062 7.51875H5.525L5.43125 7.55625H5.4125L5.3375 7.59375L5.33679 7.59734L5.33475 7.60038L5.33171 7.60241L5.32812 7.60312L5.24375 7.66875C5.24375 7.67124 5.24276 7.67362 5.241 7.67538C5.23925 7.67714 5.23686 7.67813 5.23438 7.67813L5.17813 7.74375H5.16875C5.14382 7.76723 5.12459 7.79609 5.1125 7.82812L5.09375 7.84687L5.05625 7.93125H5.04688L2.05625 15.4688C2.01958 15.558 2.00048 15.6535 2 15.75C2 17.9344 4.29688 18.75 5.75 18.75C7.20312 18.75 9.5 17.9344 9.5 15.75C9.49952 15.6535 9.48042 15.558 9.44375 15.4688L6.77188 8.79375L11.75 7.6875V19.5H10.25C10.0511 19.5 9.86032 19.579 9.71967 19.7197C9.57902 19.8603 9.5 20.0511 9.5 20.25C9.5 20.4489 9.57902 20.6397 9.71967 20.7803C9.86032 20.921 10.0511 21 10.25 21H14.75C14.9489 21 15.1397 20.921 15.2803 20.7803C15.421 20.6397 15.5 20.4489 15.5 20.25C15.5 20.0511 15.421 19.8603 15.2803 19.7197C15.1397 19.579 14.9489 19.5 14.75 19.5H13.25V7.35L18.0219 6.29062L15.5563 12.4688C15.5196 12.558 15.5005 12.6535 15.5 12.75C15.5 14.9344 17.7969 15.75 19.25 15.75C20.7031 15.75 23 14.9344 23 12.75C22.9995 12.6535 22.9804 12.558 22.9437 12.4688ZM5.75 17.25C5.04688 17.25 3.6125 16.9125 3.50937 15.8812L5.75 10.2656L7.99063 15.8812C7.8875 16.9125 6.45312 17.25 5.75 17.25ZM19.25 14.25C18.5469 14.25 17.1125 13.9125 17.0094 12.8812L19.25 7.26562L21.4906 12.8812C21.3875 13.9125 19.9531 14.25 19.25 14.25Z" fill="#606971" />
</svg>