<svg width="16" height="16" viewBox="0 0 16 16" fill="none" xmlns="http://www.w3.org/2000/svg">
  <path fill-rule="evenodd" clip-rule="evenodd" d="M4.39657 2.23633C4.60607 2.11252 4.86585 2 5.13273 2C5.51146 2 5.83565 2.20474 6.07212 2.4123C6.31972 2.62963 6.54266 2.91263 6.72747 3.19972C6.9138 3.48915 7.07316 3.80112 7.18747 4.08995C7.29633 4.36503 7.38427 4.66835 7.38427 4.92591C7.38427 5.28815 7.34098 5.60625 7.14304 5.90783C6.96786 6.17471 6.69307 6.38743 6.3911 6.61747C6.13812 6.81018 6.05825 6.97328 6.04987 7.11791C6.04044 7.28067 6.11208 7.56311 6.47466 8.00502C6.63624 8.20197 6.78603 8.39565 6.93128 8.58347C7.17765 8.90203 7.41095 9.2037 7.6666 9.47573C8.07342 9.9086 8.383 10.0864 8.63582 10.0864C8.72641 10.0864 8.83364 10.05 8.99644 9.93634C9.07735 9.87984 9.16045 9.81264 9.25692 9.73256C9.27106 9.72082 9.2856 9.70871 9.30048 9.69632C9.38196 9.62844 9.47366 9.55205 9.56688 9.48105C9.78621 9.31397 10.0756 9.12667 10.4384 9.0691C10.8202 9.00851 11.2106 9.10157 11.6107 9.35559C12.2548 9.76445 12.8425 10.2109 13.1805 10.6768C13.3526 10.9139 13.4908 11.1977 13.4996 11.5151C13.5089 11.8515 13.371 12.1501 13.1321 12.3927C13.1088 12.4163 13.0839 12.442 13.0573 12.4693C12.7374 12.798 12.177 13.3738 11.3801 13.7146C10.4828 14.0983 9.33273 14.1695 7.93172 13.4581C6.58208 12.7727 5.45577 11.752 4.60749 10.7223C3.7622 9.69627 3.16883 8.63169 2.90611 7.83118C2.65955 7.07991 2.52581 6.465 2.50339 5.89573C2.48067 5.31886 2.57321 4.814 2.74688 4.28481C2.93761 3.70365 3.33361 3.15275 3.74367 2.74983C3.95112 2.54599 4.17492 2.36733 4.39657 2.23633ZM4.44454 3.46312C4.11393 3.78798 3.82475 4.20743 3.69702 4.59664C3.55223 5.03781 3.48553 5.42245 3.50262 5.85638C3.52001 6.2979 3.62511 6.81508 3.85625 7.51935C4.07122 8.17438 4.59247 9.13138 5.37931 10.0865C6.16315 11.038 7.18646 11.958 8.38452 12.5664C9.53122 13.1488 10.3716 13.0583 10.9869 12.7951C11.5923 12.5362 12.0238 12.0953 12.35 11.762C12.3737 11.7378 12.3969 11.7141 12.4195 11.6911C12.4991 11.6103 12.5006 11.5652 12.4999 11.5428C12.4988 11.5013 12.4778 11.4111 12.3711 11.2641C12.1519 10.9618 11.7045 10.5996 11.0748 10.1998C10.838 10.0495 10.691 10.0415 10.5951 10.0567C10.4801 10.075 10.3516 10.1404 10.1728 10.2765C10.0985 10.3332 10.0261 10.3934 9.94437 10.4615C9.92851 10.4747 9.91229 10.4882 9.89564 10.502C9.79804 10.583 9.68707 10.6738 9.56895 10.7562C9.33367 10.9205 9.02291 11.0864 8.63582 11.0864C7.93324 11.0864 7.36705 10.6172 6.93791 10.1606C6.65378 9.85825 6.36236 9.48258 6.09329 9.13571C5.95554 8.95813 5.82364 8.7881 5.70157 8.63932C5.26799 8.11088 5.02116 7.58468 5.05154 7.06009C5.08298 6.51739 5.40119 6.11445 5.78513 5.82198C6.12008 5.56683 6.24337 5.4561 6.30704 5.35909C6.34794 5.29678 6.38427 5.21057 6.38427 4.92591C6.38427 4.86001 6.35278 4.69836 6.25764 4.45794C6.16793 4.23126 6.03868 3.97719 5.88664 3.74101C5.73308 3.50248 5.5679 3.3003 5.41245 3.16385C5.24764 3.0192 5.15408 3.00039 5.13337 3.00001C5.13337 3.00008 5.11462 3.00118 5.07392 3.01544C5.03048 3.03067 4.97377 3.05679 4.90535 3.09723C4.76783 3.1785 4.60743 3.30307 4.44454 3.46312Z" fill="#000000"/>
</svg>
