<svg width="130" height="17" viewBox="0 0 130 17" fill="none" xmlns="http://www.w3.org/2000/svg">
<path d="M68.5314 10.7179C68.5314 8.50746 70.1321 6.97664 72.0821 6.97664C74.0322 6.97664 75.6583 8.50746 75.6583 10.7179C75.6583 12.9538 74.0322 14.4592 72.0821 14.4592C70.1321 14.4592 68.5314 12.9538 68.5314 10.7179ZM65.4952 10.7179C65.4952 14.4084 68.4361 17 72.0821 17C75.7281 17 78.6691 14.4148 78.6691 10.7179C78.6691 7.04651 75.7281 4.43587 72.0567 4.43587C68.4361 4.43587 65.4952 7.04651 65.4952 10.7179ZM52.48 16.7142H55.4655V11.0927C55.4655 8.92669 56.8057 7.16085 58.9209 7.16085C60.4263 7.16085 60.8011 8.15175 60.8011 9.60634V16.7078H63.7865V9.00291C63.7865 5.82694 62.2557 4.44222 59.6006 4.44222C57.1805 4.44222 55.8339 5.97304 55.3448 6.983H55.3003C55.3003 6.983 55.3448 6.60823 55.3448 6.13819V4.72806H52.4737V16.7142H52.48ZM38.7281 16.7142H41.7135V11.1372C41.7135 8.85682 43.0792 7.16085 45.169 7.16085C46.6744 7.16085 47.0491 8.15175 47.0491 9.60634V16.7078H50.0345V9.00291C50.0345 5.82694 48.5037 4.44222 45.8486 4.44222C43.7779 4.44222 42.2725 5.71261 41.6818 6.86231H41.6373C41.6373 6.86231 41.7072 6.43673 41.7072 5.85235V0.0212752H38.7218V16.7142H38.7281ZM25.7511 10.7179C25.7511 14.1988 28.2919 17 32.2682 17C34.1992 17 36.0793 16.2441 37.21 15.05L36.0603 12.9348C35.1647 13.805 33.799 14.4656 32.5286 14.4656C30.2229 14.4656 28.7873 12.7251 28.7873 10.6989C28.7873 8.65355 30.2229 6.983 32.4333 6.983C33.6084 6.983 34.7836 7.52291 35.5394 8.27879L36.8797 6.23347C35.7236 4.98849 33.8943 4.44857 32.2682 4.44857C28.2919 4.43587 25.7511 7.30694 25.7511 10.7179ZM16.3566 9.23793C16.6361 7.70712 17.7223 6.69716 19.2531 6.69716C20.5933 6.69716 21.6287 7.63725 21.6541 9.23793H16.3566ZM13.1997 10.7179C13.1997 14.1289 15.696 17 19.6659 17C21.381 17 23.2675 16.3648 24.4871 15.285L23.312 13.1444C22.3465 13.9193 21.1015 14.4592 19.8756 14.4592C18.0653 14.4592 16.4646 13.3794 16.274 11.2833H24.5315C24.576 10.9085 24.6268 10.5083 24.6268 10.1336C24.6268 6.95759 22.7466 4.44222 19.3102 4.44222C15.7214 4.43587 13.1997 7.02746 13.1997 10.7179ZM6.22525 16.7142H9.23607V2.62557H14.7178V0.0149231H0.74353V2.62557H6.22525V16.7142Z" fill="#FC6B3F"/>
<path d="M111.077 16.7142H114.062V11.3277C114.062 9.32686 115.053 7.16085 117.143 7.16085C118.553 7.16085 118.769 8.26609 118.769 9.56188V16.7142H121.754V11.3277C121.754 9.23158 122.764 7.16085 124.81 7.16085C126.175 7.16085 126.455 8.19621 126.455 9.56188V16.7142H129.421V9.00291C129.421 5.85235 128.011 4.44222 125.489 4.44222C123.609 4.44222 122.053 5.66814 121.399 6.91312H121.354C120.859 5.28703 119.683 4.44222 117.873 4.44222C115.993 4.44222 114.507 5.80789 113.948 6.983H113.903C113.903 6.983 113.948 6.60823 113.948 6.13819V4.72806H111.077V16.7142ZM99.1159 10.7179C99.1159 8.50746 100.717 6.97664 102.667 6.97664C104.617 6.97664 106.243 8.50746 106.243 10.7179C106.243 12.9538 104.617 14.4592 102.667 14.4592C100.717 14.4592 99.1159 12.9538 99.1159 10.7179ZM96.0797 10.7179C96.0797 14.4084 99.0206 17 102.667 17C106.313 17 109.254 14.4148 109.254 10.7179C109.254 7.04651 106.313 4.43587 102.641 4.43587C99.0206 4.43587 96.0797 7.04651 96.0797 10.7179ZM83.6934 14.1035V2.62557H86.1897C89.5309 2.62557 91.7413 4.62643 91.7413 8.34231C91.7413 12.109 89.5753 14.1035 86.1897 14.1035H83.6934ZM80.6572 16.7142H86.3485C91.5 16.7142 94.8665 13.6081 94.8665 8.34231C94.8665 3.0702 91.5 0.0149231 86.3485 0.0149231H80.6572V16.7142Z" fill="#212427"/>
</svg>
