<svg width="29" height="17" viewBox="0 0 29 17" fill="none" xmlns="http://www.w3.org/2000/svg">
<path d="M17.4664 16.9992H28.0776V14.4577H22.6193C21.8433 14.4577 21.4902 14.5276 21.4902 14.5276V14.4798C21.4902 14.4798 22.007 14.0568 22.5256 13.3745L27.9139 6.62163V4.99778H17.7036V7.5393H22.7628C23.5389 7.5393 23.8919 7.49149 23.8919 7.49149V7.5393C23.8919 7.5393 23.4212 7.96228 22.8805 8.64456L17.4701 15.3974V16.9992H17.4664ZM5.97436 16.9992H8.96277V11.7525H10.5149L13.6909 16.9992H17.1262L12.867 10.4119V10.364L16.6554 4.99961H13.3378L10.4432 9.23488H8.96093V0.295395H5.97252V16.9992H5.97436ZM0.481201 16.9992H3.46961V13.9869H0.481201V16.9992Z" fill="#FC6B3F"/>
</svg>
