<svg width="20" height="20" viewBox="0 0 20 20" fill="none" xmlns="http://www.w3.org/2000/svg">
<g clip-path="url(#clip0_2858_127377)">
<path d="M12.8968 7.4781C13.1613 7.21358 13.1613 6.78472 12.8968 6.5202C12.6323 6.25568 12.2034 6.25568 11.9389 6.5202L6.5202 11.9389C6.25568 12.2034 6.25568 12.6323 6.5202 12.8968C6.78472 13.1613 7.21358 13.1613 7.4781 12.8968L12.8968 7.4781Z" fill="#FC6B3F"/>
<path d="M6.54263 7.45071C6.54263 6.95193 6.94697 6.54759 7.44575 6.54759H7.45386C7.95264 6.54759 8.35697 6.95193 8.35697 7.45071C8.35697 7.94948 7.95264 8.35382 7.45386 8.35382H7.44575C6.94697 8.35382 6.54263 7.94948 6.54263 7.45071Z" fill="#FC6B3F"/>
<path d="M11.9613 11.0632C11.4625 11.0632 11.0582 11.4675 11.0582 11.9663C11.0582 12.4651 11.4625 12.8694 11.9613 12.8694H11.9694C12.4682 12.8694 12.8726 12.4651 12.8726 11.9663C12.8726 11.4675 12.4682 11.0632 11.9694 11.0632H11.9613Z" fill="#FC6B3F"/>
<path fill-rule="evenodd" clip-rule="evenodd" d="M9.7085 0C4.34664 0 0 4.34664 0 9.7085C0 15.0704 4.34664 19.417 9.7085 19.417C15.0704 19.417 19.417 15.0704 19.417 9.7085C19.417 4.34664 15.0704 0 9.7085 0ZM1.35467 9.7085C1.35467 5.09481 5.09481 1.35467 9.7085 1.35467C14.3222 1.35467 18.0623 5.09481 18.0623 9.7085C18.0623 14.3222 14.3222 18.0623 9.7085 18.0623C5.09481 18.0623 1.35467 14.3222 1.35467 9.7085Z" fill="#FC6B3F"/>
</g>
<defs>
<clipPath id="clip0_2858_127377">
<rect width="20" height="20" fill="white"/>
</clipPath>
</defs>
</svg>
